# xmcd
#
# Track frame offsets:
#	150
#	22652
#	51320
#	73167
#	82957
#
# Disc length: 1423 seconds
#
# Revision: 1
# Processed by: cddbd v1.5.1PL0 Copyright (c) Steve Scherf et al.
# Submitted via: CDex 1.50Beta5
#
DISCID=36058d05
DTITLE=Heat Wave - Hello I'm Here
DYEAR=1900
DGENRE=Rock
TTITLE0=Africa
TTITLE1=36.5
TTITLE2=7時8分家に帰る
TTITLE3=Baby Goodnight
TTITLE4=Fire Girl
EXTD=
EXTT0=
EXTT1=
EXTT2=
EXTT3=
EXTT4=
PLAYORDER=
